<svg xmlns="http://www.w3.org/2000/svg" viewBox="0 0 171.49 161.78"><defs><style>.cls-1{fill:none;}</style></defs><g id="Capa_2" data-name="Capa 2"><g id="Pop"><path class="cls-1" d="M66,116.12c5.43,5.41,14.55,4.86,19.52,1a15.43,15.43,0,0,0,6.09-13c0-14.16,0-28.32,0-42.48,0-.29.05-.58.1-1.24,2.37,2,4.64,3.66,6.62,5.61,8.13,8,8.84,18.78,1.93,27.86-.44.59-.92,1.16-1.39,1.74a18.54,18.54,0,0,0,3.52-3,23.59,23.59,0,0,0,3.64-26.69c-1.94-3.66-4.87-6.49-7.9-9.23a69,69,0,0,1-8.53-8.56,25.46,25.46,0,0,1-3.4-5.68l-.37.08V95.17c-.48-.25-.75-.39-1-.54a15.54,15.54,0,0,0-12.69-1.48A15.35,15.35,0,0,0,66,97a13.22,13.22,0,0,0-3.22,14A13.93,13.93,0,0,0,66,116.12Z"/><path d="M165.88,56.92c-3.61-.65-7.23-1.31-10.83-2-12.5-2.33-25-4.71-37.51-7a5.43,5.43,0,0,1-4.49-3.19c-5.19-10.17-10.63-20.22-16-30.31-2-3.7-3.89-7.41-5.89-11.09A5.91,5.91,0,0,0,85.6,0a6,6,0,0,0-5.42,3.63C79.63,4.72,79,5.78,78.43,6.86Q67.94,26.6,57.49,46.35a2.31,2.31,0,0,1-1.87,1.34Q42.93,50,30.25,52.39,17.91,54.69,5.57,57A6.23,6.23,0,0,0,.34,61.25c-.87,2.62,0,4.72,1.93,6.5.18.16.34.33.51.5q17.91,17.48,35.85,35a2.21,2.21,0,0,1,.71,2.1c-.82,6.07-1.6,12.14-2.42,18.21q-2,15-4.08,30.06a6.66,6.66,0,0,0,2.91,6.91c2.35,1.62,4.71,1.34,7.15.07q21-10.86,41.94-21.65a1.9,1.9,0,0,1,1.48,0q21.38,11,42.73,21.93a19.93,19.93,0,0,0,2.76.94,7.12,7.12,0,0,0,6.86-7.77c-.17-1.41-.37-2.82-.57-4.22q-1.6-11.86-3.23-23.72c-.84-6.18-1.52-12.39-2.57-18.54-.44-2.61.29-4.2,2.16-6,11.11-10.62,22.09-21.39,33.11-32.13a20.94,20.94,0,0,0,3-3.21C173,62.59,170.48,57.75,165.88,56.92ZM66,97a15.35,15.35,0,0,1,6.14-3.81,15.54,15.54,0,0,1,12.69,1.48c.26.15.53.29,1,.54V42.54l.37-.08a25.46,25.46,0,0,0,3.4,5.68,69,69,0,0,0,8.53,8.56c3,2.74,6,5.57,7.9,9.23a23.59,23.59,0,0,1-3.64,26.69,18.54,18.54,0,0,1-3.52,3c.47-.58,1-1.15,1.39-1.74C107.19,84.8,106.48,74,98.35,66c-2-2-4.25-3.62-6.62-5.61,0,.66-.1,1-.1,1.24,0,14.16,0,28.32,0,42.48a15.43,15.43,0,0,1-6.09,13c-5,3.85-14.09,4.4-19.52-1A13.93,13.93,0,0,1,62.79,111,13.22,13.22,0,0,1,66,97Z"/></g></g></svg>